<svg xmlns="http://www.w3.org/2000/svg" width="1600" height="900" viewBox="0 0 1600 900">
  <defs>
    <linearGradient id="bg" x1="0%" y1="0%" x2="100%" y2="100%">
      <stop offset="0%" stop-color="#bae6fd"/>
      <stop offset="52%" stop-color="#a5b4fc"/>
      <stop offset="100%" stop-color="#67e8f9"/>
    </linearGradient>
  </defs>
  <rect width="1600" height="900" fill="url(#bg)"/>
  <g opacity="0.88">
    <rect x="170" y="130" width="1260" height="640" rx="36" fill="#ffffff"/>
    <circle cx="280" cy="250" r="36" fill="#6366f1"/>
    <rect x="340" y="224" width="220" height="20" rx="10" fill="#1e293b"/>
    <rect x="340" y="258" width="140" height="14" rx="7" fill="#94a3b8"/>
    <rect x="240" y="320" width="1080" height="14" rx="7" fill="#475569"/>
    <rect x="240" y="358" width="980" height="14" rx="7" fill="#475569"/>
    <rect x="240" y="396" width="920" height="14" rx="7" fill="#475569"/>
    <rect x="240" y="450" width="250" height="220" rx="18" fill="#e0f2fe"/>
    <rect x="510" y="450" width="250" height="220" rx="18" fill="#dbeafe"/>
    <rect x="780" y="450" width="250" height="220" rx="18" fill="#cffafe"/>
    <rect x="1050" y="450" width="250" height="220" rx="18" fill="#bfdbfe"/>
  </g>
  <g fill="#ffffff" opacity="0.35">
    <circle cx="120" cy="100" r="20"/><circle cx="1490" cy="170" r="26"/><circle cx="1440" cy="800" r="34"/>
  </g>
</svg>
