<svg xmlns="http://www.w3.org/2000/svg" width="1600" height="900" viewBox="0 0 1600 900">
  <defs>
    <linearGradient id="bg" x1="0%" y1="0%" x2="100%" y2="100%">
      <stop offset="0%" stop-color="#e0f2fe"/>
      <stop offset="55%" stop-color="#c7d2fe"/>
      <stop offset="100%" stop-color="#fbcfe8"/>
    </linearGradient>
  </defs>
  <rect width="1600" height="900" fill="url(#bg)"/>
  <g opacity="0.75">
    <rect x="200" y="180" width="1200" height="540" rx="28" fill="#ffffff"/>
    <rect x="240" y="230" width="520" height="24" rx="12" fill="#6366f1" opacity="0.55"/>
    <rect x="240" y="280" width="1060" height="14" rx="7" fill="#94a3b8"/>
    <rect x="240" y="320" width="1000" height="14" rx="7" fill="#94a3b8"/>
    <rect x="240" y="360" width="930" height="14" rx="7" fill="#94a3b8"/>
    <rect x="240" y="420" width="400" height="190" rx="18" fill="#e2e8f0"/>
    <rect x="690" y="430" width="600" height="16" rx="8" fill="#64748b"/>
    <rect x="690" y="470" width="540" height="16" rx="8" fill="#64748b"/>
    <rect x="690" y="510" width="460" height="16" rx="8" fill="#64748b"/>
    <rect x="690" y="560" width="180" height="36" rx="18" fill="#4f46e5"/>
  </g>
  <g fill="#ffffff" opacity="0.45">
    <circle cx="140" cy="140" r="30"/><circle cx="1480" cy="760" r="24"/><circle cx="1440" cy="120" r="18"/>
  </g>
</svg>
